<?xml version="1.0" encoding="UTF-8"?>
<svg id="Capa_1" xmlns="http://www.w3.org/2000/svg" version="1.1" viewBox="0 0 283 45.1">
  <defs>
    <style>
      .st0 {
        fill: #606060;
      }

      .st1 {
        fill: #e8005a;
      }
    </style>
  </defs>
  <g>
    <path d="M3.9,19.3H0v-3.6l7.1-.9-3.3,1.7c.6-6.9,2.6-10.3,5.1-12.6C12.1,1.1,15.6,0,19,0s6.4,1.1,7.2,4.3c0,2.3-1.6,4-4.3,4s-3.7-1.2-5.4-4.3l-1.5-2,5.9-1.3.6,1.8c-.5-.4-.3-.8-1-.8-2.1,0-4.7,1.7-5.5,3-1.7,2.8-2,7-1.6,13.7v13.3c0,4.2,0,8.4.2,12.6H3.7c.1-4.2.2-8.4.2-12.6v-12.3ZM18.1,41.4v2.8H.4v-2.8l5.9-1.2h6.1l5.6,1.2ZM19.7,15.2v4.1h-11v-4.1h11Z"/>
    <path d="M35.1,34.3c0,3.7,1.2,4.9,3.3,4.9s5.3-2.4,7.1-4.9h2.3v4h-3.9l1.9-1.7c-2.9,5.4-6.9,8.5-11.8,8.5s-8.6-2.9-8.5-10.8l.2-16.1,1.9,1.9-5.4-1.2v-2.5l12.2-1.7.9.6-.3,8.5v10.6ZM44,44.8l-.5-7.1.2-19.7,1.9,2-5.2-1.2v-2.3l11.9-1.9.9.6-.2,8.5v19.9l-4-3.7,7.1,1.5v2.8l-12.3.6Z"/>
    <path d="M70.3.6l1,.6-.2,8.4v21.5c0,4,0,10.5.2,13h-9.9c.1-2.6.2-9,.2-12.6V6.4l-3.7-.6v-2.5l12.6-2.7ZM74.3,41.4v2.8h-16.3v-2.8l5.6-1.2h4.6l6.1,1.2ZM88.9,15.2l-22.9,21.4v-3.7l18.1-17.7h4.7ZM84.2,39.4l8.1,2v2.8h-12.2l-7.3-15.7,6.7-6,10.4,20.7-5.6-3.8ZM82.6,18.9l-6-1v-2.7h14v2.7l-6.7.9h-1.4Z"/>
    <path d="M94,42.3v-7.4h5l1.4,8-3.4-1.2v-2.5c2.6,1.6,4.7,2.4,7.5,2.4s5.4-1.1,5.4-3.5-1.1-3.1-5.1-4.3l-3.2-.9c-4.6-1.4-7.3-4.4-7.3-8.9s4.4-9.8,12.5-9.8,6.4.9,9.5,2.4l-.4,6.6h-4.8l-1.7-7.4,3.3,1.4v2.2c-2.1-1.4-3.4-1.9-6.1-1.9s-4.5,1.2-4.5,3.4.9,2.8,5,4.1l2.9.8c5.7,1.7,8,4.8,8,9.3,0,6.3-5.1,10-13.6,10s-7.3-.9-10.4-2.8Z"/>
    <path d="M123.1,44.2c.1-2.7.2-8.9.2-12.6v-2.9c0-3.3,0-5.2-.2-7.6l-3.7-.5v-2.4l12.6-4,1,.6-.2,8.7v8c0,3.7,0,9.9.2,12.6h-9.9ZM135.9,41.4v2.8h-15.9v-2.8l5.6-1.2h4.5l5.8,1.2ZM122.9,5c0-2.8,2.3-4.8,5.1-4.8s5.1,2,5.1,4.8-2.3,4.8-5.1,4.8-5.1-2-5.1-4.8Z"/>
    <path d="M149.6,27.5c2.5-.7,6.7-1.9,9.6-2.5v2.5c-2.8.7-6.1,1.6-7.8,2.4-2.7,1.1-4.5,3.2-4.5,6s1.6,4.4,3.6,4.4,2.1-.5,4-1.9l2.4-1.8.6.9-2.5,2.7c-2.9,3.1-4.8,4.9-9.1,4.9s-7.9-2.7-7.9-7.7,2.4-7.3,11.6-10ZM154.2,39.3v-15c0-5.3-1-6.9-4.9-6.9s-3,.2-5.6.9l4.1-2.3-.4,4.2c-.2,4-2.1,5.6-4.4,5.6s-3.6-1-4-3c.3-5,5.1-8.4,13.8-8.4s10.7,3.3,10.7,11.3v13.5c0,1.2.5,1.8,1.4,1.8s1.1-.3,1.8-1.3l1.6,1.1c-1.4,3.3-3.6,4.5-7.2,4.5s-6.3-2.1-6.8-5.8Z"/>
    <path class="st1" d="M173.1,38.7c0-3.3,2.6-6.1,6-6.1s6,2.8,6,6.1-2.6,5.9-6,5.9-6-2.7-6-5.9Z"/>
  </g>
  <g>
    <path class="st0" d="M196,8.2v35.8h-4.4V8.2h4.4Z"/>
    <path class="st0" d="M201.5,23.5c1.1-2,2.6-3.6,4.5-4.8,1.9-1.1,4.1-1.7,6.4-1.7s4.3.5,6,1.5c1.7,1,3,2.3,3.8,3.8v-4.8h4.4v26.5h-4.4v-4.9c-.9,1.5-2.2,2.8-3.9,3.8-1.7,1-3.7,1.5-6,1.5s-4.5-.6-6.4-1.7c-1.9-1.2-3.4-2.8-4.5-4.9-1.1-2.1-1.6-4.5-1.6-7.2s.5-5.1,1.6-7.1ZM221.1,25.5c-.8-1.5-1.9-2.6-3.3-3.4-1.4-.8-2.9-1.2-4.5-1.2s-3.1.4-4.5,1.2c-1.4.8-2.4,1.9-3.2,3.4-.8,1.5-1.2,3.2-1.2,5.2s.4,3.8,1.2,5.3c.8,1.5,1.9,2.6,3.2,3.4,1.4.8,2.9,1.2,4.5,1.2s3.2-.4,4.5-1.2c1.4-.8,2.5-1.9,3.3-3.4.8-1.5,1.2-3.2,1.2-5.2s-.4-3.7-1.2-5.2Z"/>
    <path class="st0" d="M240.6,18.6c1.7-1,3.7-1.5,5.9-1.5s4.5.6,6.4,1.7c1.9,1.1,3.4,2.7,4.5,4.8,1.1,2,1.6,4.4,1.6,7.1s-.5,5.1-1.6,7.2c-1.1,2.1-2.6,3.7-4.5,4.9-1.9,1.2-4.1,1.7-6.4,1.7s-4.3-.5-6-1.5c-1.7-1-3-2.3-3.9-3.8v4.9h-4.4V8.2h4.4v14.2c.9-1.6,2.2-2.9,4-3.9ZM253.4,25.4c-.8-1.5-1.9-2.6-3.3-3.4-1.4-.8-2.9-1.2-4.5-1.2s-3.1.4-4.5,1.2c-1.4.8-2.5,1.9-3.3,3.4-.8,1.5-1.2,3.2-1.2,5.2s.4,3.7,1.2,5.2c.8,1.5,1.9,2.6,3.3,3.4,1.4.8,2.9,1.2,4.5,1.2s3.2-.4,4.5-1.2c1.4-.8,2.5-1.9,3.3-3.4.8-1.5,1.2-3.3,1.2-5.3s-.4-3.7-1.2-5.2Z"/>
    <path class="st0" d="M267.8,43.4c-1.6-.7-2.9-1.7-3.8-2.9-.9-1.2-1.5-2.7-1.5-4.3h4.5c.1,1.3.7,2.4,1.9,3.2s2.6,1.3,4.4,1.3,3-.4,4-1.1c1-.7,1.5-1.7,1.5-2.8s-.5-2-1.5-2.6c-1-.6-2.6-1.1-4.8-1.7-2-.5-3.6-1-4.8-1.6-1.2-.5-2.3-1.3-3.2-2.4-.9-1-1.3-2.4-1.3-4.1s.4-2.6,1.2-3.7c.8-1.1,2-2,3.4-2.7,1.5-.7,3.2-1,5.1-1,2.9,0,5.3.7,7.1,2.2,1.8,1.5,2.8,3.5,2.9,6.1h-4.4c0-1.4-.7-2.5-1.7-3.3-1-.8-2.4-1.3-4.1-1.3s-2.8.3-3.8,1c-.9.7-1.4,1.6-1.4,2.7s.3,1.6.8,2.2c.6.6,1.3,1,2.1,1.4.9.3,2,.7,3.6,1.1,1.9.5,3.4,1,4.6,1.5,1.2.5,2.2,1.2,3.1,2.2.9,1,1.3,2.3,1.3,3.9,0,1.5-.4,2.8-1.2,3.9-.8,1.2-1.9,2.1-3.4,2.7-1.5.7-3.2,1-5.1,1s-3.9-.3-5.5-1Z"/>
  </g>
</svg>
